<svg xmlns="http://www.w3.org/2000/svg" xmlns:xlink="http://www.w3.org/1999/xlink" width="90" height="89.999" viewBox="0 0 90 89.999">
  <defs>
    <clipPath id="clip-path">
      <rect id="Rectangle_459583" data-name="Rectangle 459583" width="51" height="54" transform="translate(-6895 -8137)" fill="#fff" stroke="#707070" stroke-width="1" opacity="0"/>
    </clipPath>
  </defs>
  <g id="Group_1358628" data-name="Group 1358628" transform="translate(6914.051 8154.999)">
    <g id="Group_1358610" data-name="Group 1358610" transform="translate(-7716.832 -10121.998)">
      <g id="Group_1204180" data-name="Group 1204180" transform="translate(802.781 1967)">
        <g id="Group_1204143" data-name="Group 1204143">
          <g id="Group_1188789" data-name="Group 1188789" transform="translate(0 0)">
            <path id="Path_1243039" data-name="Path 1243039" d="M37.05,0h0a37.05,37.05,0,0,1,0,74.1h0a37.05,37.05,0,0,1,0-74.1Z" transform="translate(7.951 7.949)" fill="#92d0d5"/>
            <rect id="Rectangle_400907" data-name="Rectangle 400907" width="80.438" height="80.437" rx="40.218" transform="translate(4.782 4.781)" fill="none"/>
            <g id="Group_1098742" data-name="Group 1098742" transform="translate(0)">
              <g id="Rectangle_400898" data-name="Rectangle 400898" transform="translate(0)" fill="none" stroke="#fff" stroke-width="2" opacity="0.859">
                <rect width="90" height="89.999" rx="44.999" stroke="none"/>
                <rect x="1" y="1" width="88" height="87.999" rx="43.999" fill="none"/>
              </g>
              <g id="Rectangle_400907-2" data-name="Rectangle 400907" transform="translate(0)" fill="none" stroke="#0f1f33" stroke-linecap="round" stroke-width="2">
                <rect width="90" height="89.999" rx="44.999" stroke="none"/>
                <rect x="1" y="1" width="88" height="87.999" rx="43.999" fill="none"/>
              </g>
            </g>
          </g>
        </g>
      </g>
    </g>
    <g id="Mask_Group_1099525" data-name="Mask Group 1099525" clip-path="url(#clip-path)">
      <g id="Layer_84" transform="translate(-6896.5 -8137)">
        <g id="Group_1359269" data-name="Group 1359269">
          <g id="Group_1359135" data-name="Group 1359135">
            <g id="Group_1359134" data-name="Group 1359134">
              <path id="Path_1369281" data-name="Path 1369281" d="M12.039,45.908H5.854a3.176,3.176,0,0,0-3.167,3.167v3.757a.641.641,0,0,0,.641.641H14.565a.641.641,0,0,0,.641-.641V49.075a3.176,3.176,0,0,0-3.167-3.167Z" fill="#70d6f9"/>
            </g>
          </g>
          <g id="Group_1359137" data-name="Group 1359137">
            <g id="Group_1359136" data-name="Group 1359136">
              <path id="Path_1369282" data-name="Path 1369282" d="M24.557,45.908H18.373a3.176,3.176,0,0,0-3.167,3.167v3.757a.641.641,0,0,0,.641.641H27.084a.641.641,0,0,0,.641-.641V49.075A3.177,3.177,0,0,0,24.557,45.908Z" fill="#5290db"/>
            </g>
          </g>
          <g id="Group_1359139" data-name="Group 1359139">
            <g id="Group_1359138" data-name="Group 1359138">
              <path id="Path_1369283" data-name="Path 1369283" d="M37.076,45.908H30.891a3.176,3.176,0,0,0-3.167,3.167v3.757a.641.641,0,0,0,.641.641H39.6a.641.641,0,0,0,.641-.641V49.075A3.176,3.176,0,0,0,37.076,45.908Z" fill="#f5c84c"/>
            </g>
          </g>
          <g id="Group_1359141" data-name="Group 1359141">
            <g id="Group_1359140" data-name="Group 1359140">
              <path id="Path_1369284" data-name="Path 1369284" d="M30.353,41.527A3.626,3.626,0,0,1,32.144,38.4a3.131,3.131,0,0,0-1.327-.3H24.632a3.13,3.13,0,0,0-1.327.3,3.628,3.628,0,0,1-1.84,6.756v.751h3.092a3.176,3.176,0,0,1,3.167,3.167,3.176,3.176,0,0,1,3.167-3.167h3.092v-.751a3.63,3.63,0,0,1-3.631-3.63Z" fill="#87d147"/>
            </g>
          </g>
          <g id="Group_1359143" data-name="Group 1359143">
            <g id="Group_1359142" data-name="Group 1359142">
              <path id="Path_1369285" data-name="Path 1369285" d="M17.835,41.527A3.626,3.626,0,0,1,19.626,38.4a3.132,3.132,0,0,0-1.327-.3H12.113a3.13,3.13,0,0,0-1.327.3,3.628,3.628,0,0,1-1.84,6.756v.751h3.092a3.176,3.176,0,0,1,3.167,3.167,3.176,3.176,0,0,1,3.167-3.167h3.092v-.751a3.63,3.63,0,0,1-3.63-3.63Z" fill="#f98fa6"/>
            </g>
          </g>
          <g id="Group_1359145" data-name="Group 1359145">
            <g id="Group_1359144" data-name="Group 1359144">
              <path id="Path_1369286" data-name="Path 1369286" d="M8.946,37.9a3.63,3.63,0,1,0,3.63,3.63,3.631,3.631,0,0,0-3.63-3.63Z" fill="#f9d0b4"/>
            </g>
          </g>
          <g id="Group_1359147" data-name="Group 1359147">
            <g id="Group_1359146" data-name="Group 1359146">
              <path id="Path_1369287" data-name="Path 1369287" d="M21.465,37.9a3.63,3.63,0,1,0,3.63,3.63,3.631,3.631,0,0,0-3.63-3.63Z" fill="#f9d0b4"/>
            </g>
          </g>
          <g id="Group_1359149" data-name="Group 1359149">
            <g id="Group_1359148" data-name="Group 1359148">
              <path id="Path_1369288" data-name="Path 1369288" d="M27.724,30.092a3.63,3.63,0,1,0,3.63,3.63,3.631,3.631,0,0,0-3.63-3.63Z" fill="#f9d0b4"/>
            </g>
          </g>
          <g id="Group_1359151" data-name="Group 1359151">
            <g id="Group_1359150" data-name="Group 1359150">
              <path id="Path_1369289" data-name="Path 1369289" d="M15.206,30.092a3.63,3.63,0,1,0,3.63,3.63,3.631,3.631,0,0,0-3.63-3.63Z" fill="#f9d0b4"/>
            </g>
          </g>
          <g id="Group_1359153" data-name="Group 1359153">
            <g id="Group_1359152" data-name="Group 1359152">
              <path id="Path_1369290" data-name="Path 1369290" d="M33.983,37.9a3.63,3.63,0,1,0,3.63,3.63,3.631,3.631,0,0,0-3.63-3.63Z" fill="#f9d0b4"/>
            </g>
          </g>
          <g id="Group_1359155" data-name="Group 1359155">
            <g id="Group_1359154" data-name="Group 1359154">
              <path id="Path_1369291" data-name="Path 1369291" d="M28.491,10.652H26.567a1.256,1.256,0,0,0-1.253,1.253v1.924a1.256,1.256,0,0,0,1.253,1.253h1.924a1.256,1.256,0,0,0,1.253-1.253V11.905A1.256,1.256,0,0,0,28.491,10.652Z" fill="#f9d0b4"/>
            </g>
          </g>
          <g id="Group_1359157" data-name="Group 1359157">
            <g id="Group_1359156" data-name="Group 1359156">
              <path id="Path_1369292" data-name="Path 1369292" d="M50.782,23a1.889,1.889,0,0,0-1.425-1.727l-2.592-.653a11.513,11.513,0,0,1-2.441-.931A1.654,1.654,0,0,1,43.4,18.2v-.779a4.749,4.749,0,0,1-4.412,0v.783a1.648,1.648,0,0,1-.927,1.482,9.222,9.222,0,0,1-4.034.929H29.785a.411.411,0,0,1-.41-.41V14.715a1.248,1.248,0,0,1-.884.367H26.567a1.245,1.245,0,0,1-.778-.274V20.92a3.25,3.25,0,0,0,3.232,3.25l4,.032a1.641,1.641,0,0,1,1.632,1.641v6.212a.628.628,0,0,0,.628.628H50.787a.525.525,0,0,0,.524-.554Z" fill="#fca265"/>
            </g>
          </g>
          <g id="Group_1359159" data-name="Group 1359159">
            <g id="Group_1359158" data-name="Group 1359158">
              <path id="Path_1369293" data-name="Path 1369293" d="M33.018,4.057,28.584,1.84V7.23l4.434-2.217A.535.535,0,0,0,33.018,4.057Z" fill="#fc657e"/>
            </g>
          </g>
          <g id="Group_1359161" data-name="Group 1359161">
            <g id="Group_1359160" data-name="Group 1359160">
              <path id="Path_1369294" data-name="Path 1369294" d="M27.529.527a1.055,1.055,0,0,0-1.055,1.055v9.075c.031,0,.061,0,.093,0h1.924c.031,0,.062,0,.093,0V1.582A1.055,1.055,0,0,0,27.529.527Z" fill="#d8a380"/>
            </g>
          </g>
          <g id="Group_1359163" data-name="Group 1359163">
            <g id="Group_1359162" data-name="Group 1359162">
              <path id="Path_1369295" data-name="Path 1369295" d="M28.492,15.082H26.567c-.031,0-.062,0-.093,0v1.27a1.055,1.055,0,0,0,2.109,0v-1.27C28.553,15.079,28.523,15.082,28.492,15.082Z" fill="#d8a380"/>
            </g>
          </g>
          <g id="Group_1359165" data-name="Group 1359165">
            <g id="Group_1359164" data-name="Group 1359164">
              <path id="Path_1369296" data-name="Path 1369296" d="M44.324,19.688A1.654,1.654,0,0,1,43.4,18.2v-.779a4.749,4.749,0,0,1-4.412,0v.783a1.648,1.648,0,0,1-.927,1.482c-.064.031-.13.058-.194.088a4.763,4.763,0,0,0,6.646.008c-.126-.062-.194-.1-.19-.1Z" fill="#f9d0b4"/>
            </g>
          </g>
          <g id="Group_1359167" data-name="Group 1359167">
            <g id="Group_1359166" data-name="Group 1359166">
              <path id="Path_1369297" data-name="Path 1369297" d="M43.153,25.34H39.238a.54.54,0,0,0-.54.541v4.226a.54.54,0,0,0,.54.541h3.915a.54.54,0,0,0,.54-.541V25.881A.54.54,0,0,0,43.153,25.34Z" fill="#edf4fc"/>
            </g>
          </g>
          <g id="Group_1359169" data-name="Group 1359169">
            <g id="Group_1359168" data-name="Group 1359168">
              <path id="Path_1369298" data-name="Path 1369298" d="M43.153,25.34H39.238a.54.54,0,0,0-.54.541v1.647h5V25.881A.541.541,0,0,0,43.153,25.34Z" fill="#70d6f9"/>
            </g>
          </g>
          <g id="Group_1359171" data-name="Group 1359171">
            <g id="Group_1359170" data-name="Group 1359170">
              <path id="Path_1369299" data-name="Path 1369299" d="M9.049,31.261a1.644,1.644,0,0,1-1.308-1.287c0-.021-.063-.021-.063,0A1.644,1.644,0,0,1,6.37,31.261c-.021,0-.021.042,0,.063a1.644,1.644,0,0,1,1.308,1.287c0,.021.063.021.063,0a1.644,1.644,0,0,1,1.308-1.287C9.07,31.3,9.07,31.261,9.049,31.261Z" fill="#87d147"/>
            </g>
          </g>
          <g id="Group_1359173" data-name="Group 1359173">
            <g id="Group_1359172" data-name="Group 1359172">
              <path id="Path_1369300" data-name="Path 1369300" d="M46.828,42.5h-.506v-.485a.666.666,0,0,0-.675-.675.676.676,0,0,0-.675.654V42.5h-.485a.666.666,0,0,0-.675.675.653.653,0,0,0,.675.675h.485v.485a.666.666,0,0,0,.675.675.676.676,0,0,0,.675-.654v-.506h.485a.666.666,0,0,0,.675-.675A.676.676,0,0,0,46.828,42.5Z" fill="#70d6f9"/>
            </g>
          </g>
          <g id="Group_1359175" data-name="Group 1359175">
            <g id="Group_1359174" data-name="Group 1359174">
              <path id="Path_1369301" data-name="Path 1369301" d="M43.727,48.3a.717.717,0,1,0,.717.717A.717.717,0,0,0,43.727,48.3Z" fill="#f5c84c"/>
            </g>
          </g>
          <g id="Group_1359177" data-name="Group 1359177">
            <g id="Group_1359176" data-name="Group 1359176">
              <path id="Path_1369302" data-name="Path 1369302" d="M22.212,0a.717.717,0,1,0,.717.717A.717.717,0,0,0,22.212,0Z" fill="#fc657e"/>
            </g>
          </g>
          <g id="Group_1359179" data-name="Group 1359179">
            <g id="Group_1359178" data-name="Group 1359178">
              <path id="Path_1369303" data-name="Path 1369303" d="M20.651,5.21a2.341,2.341,0,0,1-1.877-1.835c0-.042-.084-.042-.084,0A2.341,2.341,0,0,1,16.812,5.21c-.042,0-.042.063,0,.084A2.341,2.341,0,0,1,18.689,7.13c0,.042.084.042.084,0a2.341,2.341,0,0,1,1.877-1.835c.042-.021.042-.084,0-.084Z" fill="#f5c84c"/>
            </g>
          </g>
          <g id="Group_1359181" data-name="Group 1359181">
            <g id="Group_1359180" data-name="Group 1359180">
              <path id="Path_1369304" data-name="Path 1369304" d="M45.3,7.454a.877.877,0,0,0-1.179-.078,4.809,4.809,0,0,1-5.85,0,.877.877,0,0,0-1.177.08l0,0a2.476,2.476,0,0,0-.684,1.709v4.018a4.788,4.788,0,0,0,9.576,0V9.162A2.477,2.477,0,0,0,45.3,7.454Z" fill="#f9d0b4"/>
            </g>
          </g>
          <g id="Group_1359183" data-name="Group 1359183">
            <g id="Group_1359182" data-name="Group 1359182">
              <path id="Path_1369305" data-name="Path 1369305" d="M46.291,9.532a2.021,2.021,0,0,0-.307.024v3.625c0,.108,0,.215-.012.321a2,2,0,1,0,.319-3.97Z" fill="#f9d0b4"/>
            </g>
          </g>
          <g id="Group_1359185" data-name="Group 1359185">
            <g id="Group_1359184" data-name="Group 1359184">
              <path id="Path_1369306" data-name="Path 1369306" d="M36.408,13.181V9.556A2,2,0,1,0,36.1,13.53a2.015,2.015,0,0,0,.319-.028c-.007-.106-.012-.213-.012-.321Z" fill="#f9d0b4"/>
            </g>
          </g>
          <g id="Group_1359187" data-name="Group 1359187">
            <g id="Group_1359186" data-name="Group 1359186">
              <path id="Path_1369307" data-name="Path 1369307" d="M45.966,5.447a.3.3,0,0,1-.3-.284c-.037-2.668-3.083-3.169-6.118-2.645A5.365,5.365,0,0,0,35.094,7.8v2A1.986,1.986,0,0,1,36.1,9.532a2.021,2.021,0,0,1,.307.024V9.162a2.476,2.476,0,0,1,.684-1.709l0,0a.877.877,0,0,1,1.177-.08,4.809,4.809,0,0,0,5.85,0,.877.877,0,0,1,1.179.078,2.475,2.475,0,0,1,.684,1.709v.394a1.98,1.98,0,0,1,1.324.256V8.168c0-2.389-.863-2.721-1.342-2.721Z" fill="#5b5d60"/>
            </g>
          </g>
          <g id="Group_1359190" data-name="Group 1359190">
            <g id="Group_1359189" data-name="Group 1359189">
              <g id="Group_1359188" data-name="Group 1359188">
                <path id="Path_1369308" data-name="Path 1369308" d="M45.682,7.09A1.4,1.4,0,0,0,43.8,6.961a4.282,4.282,0,0,1-5.2,0,1.4,1.4,0,0,0-1.885.133,2.991,2.991,0,0,0-.83,2.072v4.018a5.315,5.315,0,1,0,10.631,0V9.162A2.989,2.989,0,0,0,45.682,7.09Zm-.225,6.091a4.261,4.261,0,1,1-8.521,0V9.162a1.941,1.941,0,0,1,.54-1.346.341.341,0,0,1,.248-.106.36.36,0,0,1,.222.077,5.336,5.336,0,0,0,6.5,0,.35.35,0,0,1,.472.028,1.94,1.94,0,0,1,.538,1.345v4.019Z"/>
              </g>
            </g>
          </g>
          <g id="Group_1359192" data-name="Group 1359192">
            <g id="Group_1359191" data-name="Group 1359191">
              <path id="Path_1369309" data-name="Path 1369309" d="M46.291,9c-.066,0-.132,0-.2.008a.527.527,0,0,0,.085,1.051c.037,0,.075,0,.113,0a1.472,1.472,0,0,1,0,2.944c-.041,0-.082,0-.122-.006a.527.527,0,0,0-.105,1.049,2.246,2.246,0,0,0,.227.012,2.526,2.526,0,0,0,0-5.053Z"/>
            </g>
          </g>
          <g id="Group_1359194" data-name="Group 1359194">
            <g id="Group_1359193" data-name="Group 1359193">
              <path id="Path_1369310" data-name="Path 1369310" d="M36.817,13.462a.528.528,0,0,0-.581-.468A1.317,1.317,0,0,1,36.1,13a1.472,1.472,0,0,1,0-2.944c.045,0,.09,0,.134.007a.527.527,0,0,0,.1-1.05C36.258,9.008,36.18,9,36.1,9a2.526,2.526,0,0,0,0,5.053,2.317,2.317,0,0,0,.249-.014.527.527,0,0,0,.468-.58Z"/>
            </g>
          </g>
          <g id="Group_1359196" data-name="Group 1359196">
            <g id="Group_1359195" data-name="Group 1359195">
              <path id="Path_1369311" data-name="Path 1369311" d="M42.9,14.041a.527.527,0,0,0-.743.065,1.269,1.269,0,0,1-1.786,0,.527.527,0,1,0-.808.678,2.316,2.316,0,0,0,3.4,0A.528.528,0,0,0,42.9,14.041Z"/>
            </g>
          </g>
          <g id="Group_1359198" data-name="Group 1359198">
            <g id="Group_1359197" data-name="Group 1359197">
              <path id="Path_1369312" data-name="Path 1369312" d="M43.426,11.108a.643.643,0,1,0,.643.643A.643.643,0,0,0,43.426,11.108Z"/>
            </g>
          </g>
          <g id="Group_1359200" data-name="Group 1359200">
            <g id="Group_1359199" data-name="Group 1359199">
              <path id="Path_1369313" data-name="Path 1369313" d="M39.105,11.108a.643.643,0,1,0,.643.643A.643.643,0,0,0,39.105,11.108Z"/>
            </g>
          </g>
          <g id="Group_1359202" data-name="Group 1359202">
            <g id="Group_1359201" data-name="Group 1359201">
              <path id="Path_1369314" data-name="Path 1369314" d="M46.182,4.934a2.917,2.917,0,0,0-1.06-2.124C43.57,1.521,40.907,1.748,39.457,2A5.88,5.88,0,0,0,34.567,7.8V9.7a.527.527,0,1,0,1.055,0V7.8a4.827,4.827,0,0,1,4.015-4.766c2.162-.374,3.916-.161,4.812.583a1.926,1.926,0,0,1,.688,1.549.825.825,0,0,0,.829.8c.51,0,.814.82.814,2.194V9.733a.527.527,0,1,0,1.055,0V8.168c0-2.55-.954-3.143-1.653-3.234Z"/>
            </g>
          </g>
          <g id="Group_1359204" data-name="Group 1359204">
            <g id="Group_1359203" data-name="Group 1359203">
              <path id="Path_1369315" data-name="Path 1369315" d="M47.587,24.526a.527.527,0,0,0-.527.527v7.527a.527.527,0,1,0,1.055,0V25.054A.527.527,0,0,0,47.587,24.526Z"/>
            </g>
          </g>
          <g id="Group_1359207" data-name="Group 1359207">
            <g id="Group_1359206" data-name="Group 1359206">
              <g id="Group_1359205" data-name="Group 1359205">
                <path id="Path_1369316" data-name="Path 1369316" d="M28.491,10.125H26.567a1.782,1.782,0,0,0-1.78,1.78v1.924a1.782,1.782,0,0,0,1.78,1.78h1.924a1.782,1.782,0,0,0,1.78-1.78V11.9a1.782,1.782,0,0,0-1.78-1.78Zm.726,3.7a.726.726,0,0,1-.725.725H26.567a.726.726,0,0,1-.725-.725V11.905a.726.726,0,0,1,.725-.725h1.924a.726.726,0,0,1,.725.725Z"/>
              </g>
            </g>
          </g>
          <g id="Group_1359209" data-name="Group 1359209">
            <g id="Group_1359208" data-name="Group 1359208">
              <path id="Path_1369317" data-name="Path 1369317" d="M38.99,17.04a.527.527,0,0,0-.527.527v.641a1.127,1.127,0,0,1-.63,1.008,8.745,8.745,0,0,1-3.8.876H29.9v-5.3a.527.527,0,0,0-1.055,0v5.416a.939.939,0,0,0,.938.938h4.243a9.806,9.806,0,0,0,4.265-.982,2.189,2.189,0,0,0,1.224-1.956v-.641a.527.527,0,0,0-.527-.528Z"/>
            </g>
          </g>
          <g id="Group_1359211" data-name="Group 1359211">
            <g id="Group_1359210" data-name="Group 1359210">
              <path id="Path_1369318" data-name="Path 1369318" d="M51.309,22.97a2.407,2.407,0,0,0-1.823-2.21l-2.592-.652a11.076,11.076,0,0,1-2.309-.879l-.027-.014a1.12,1.12,0,0,1-.628-1.011v-.644a.527.527,0,0,0-1.055,0V18.2a2.167,2.167,0,0,0,1.191,1.943,6.383,6.383,0,0,0,.759.362,12.2,12.2,0,0,0,1.813.622l2.592.652a1.356,1.356,0,0,1,1.028,1.246l.532,9.125H35.279a.1.1,0,0,1-.1-.1V25.843a2.173,2.173,0,0,0-2.156-2.169l-4-.032a2.728,2.728,0,0,1-2.708-2.722V14.912a.527.527,0,0,0-1.055,0V20.92A3.785,3.785,0,0,0,29.018,24.7l4,.032a1.117,1.117,0,0,1,1.108,1.114v6.212a1.157,1.157,0,0,0,1.155,1.155H50.788A1.053,1.053,0,0,0,51.839,32.1Z"/>
            </g>
          </g>
          <g id="Group_1359213" data-name="Group 1359213">
            <g id="Group_1359212" data-name="Group 1359212">
              <path id="Path_1369319" data-name="Path 1369319" d="M44.67,19.508a.528.528,0,0,0-.643.378l-1.384,5.322a.527.527,0,1,0,1.021.265l1.384-5.322a.528.528,0,0,0-.378-.643Z"/>
            </g>
          </g>
          <g id="Group_1359215" data-name="Group 1359215">
            <g id="Group_1359214" data-name="Group 1359214">
              <path id="Path_1369320" data-name="Path 1369320" d="M39.748,25.207l-1.384-5.322a.527.527,0,0,0-1.021.265l1.384,5.322a.527.527,0,1,0,1.021-.265Z"/>
            </g>
          </g>
          <g id="Group_1359218" data-name="Group 1359218">
            <g id="Group_1359217" data-name="Group 1359217">
              <g id="Group_1359216" data-name="Group 1359216">
                <path id="Path_1369321" data-name="Path 1369321" d="M8.946,37.369A4.158,4.158,0,1,0,13.1,41.527a4.163,4.163,0,0,0-4.158-4.158Zm0,7.261a3.1,3.1,0,1,1,3.1-3.1,3.107,3.107,0,0,1-3.1,3.1Z"/>
              </g>
            </g>
          </g>
          <g id="Group_1359221" data-name="Group 1359221">
            <g id="Group_1359220" data-name="Group 1359220">
              <g id="Group_1359219" data-name="Group 1359219">
                <path id="Path_1369322" data-name="Path 1369322" d="M12.039,45.381H5.854A3.7,3.7,0,0,0,2.16,49.075v3.757A1.169,1.169,0,0,0,3.328,54H14.565a1.169,1.169,0,0,0,1.168-1.168V49.075a3.7,3.7,0,0,0-3.694-3.694Zm2.64,7.451a.113.113,0,0,1-.113.113H3.328a.113.113,0,0,1-.113-.113V49.075a2.643,2.643,0,0,1,2.64-2.64h6.184a2.643,2.643,0,0,1,2.64,2.64Z"/>
              </g>
            </g>
          </g>
          <g id="Group_1359223" data-name="Group 1359223">
            <g id="Group_1359222" data-name="Group 1359222">
              <path id="Path_1369323" data-name="Path 1369323" d="M12.641,48.93a.527.527,0,0,0-.527.527v3.716a.527.527,0,1,0,1.055,0V49.457A.527.527,0,0,0,12.641,48.93Z"/>
            </g>
          </g>
          <g id="Group_1359225" data-name="Group 1359225">
            <g id="Group_1359224" data-name="Group 1359224">
              <path id="Path_1369324" data-name="Path 1369324" d="M5.252,48.93a.527.527,0,0,0-.527.527v3.716a.527.527,0,1,0,1.055,0V49.457A.527.527,0,0,0,5.252,48.93Z"/>
            </g>
          </g>
          <g id="Group_1359228" data-name="Group 1359228">
            <g id="Group_1359227" data-name="Group 1359227">
              <g id="Group_1359226" data-name="Group 1359226">
                <path id="Path_1369325" data-name="Path 1369325" d="M21.465,37.369a4.158,4.158,0,1,0,4.158,4.158A4.163,4.163,0,0,0,21.465,37.369Zm0,7.261a3.1,3.1,0,1,1,3.1-3.1A3.107,3.107,0,0,1,21.465,44.63Z"/>
              </g>
            </g>
          </g>
          <g id="Group_1359231" data-name="Group 1359231">
            <g id="Group_1359230" data-name="Group 1359230">
              <g id="Group_1359229" data-name="Group 1359229">
                <path id="Path_1369326" data-name="Path 1369326" d="M24.557,45.381H18.373a3.7,3.7,0,0,0-3.694,3.694v3.757A1.169,1.169,0,0,0,15.846,54H27.084a1.169,1.169,0,0,0,1.168-1.168V49.075a3.7,3.7,0,0,0-3.694-3.694Zm2.64,7.451a.113.113,0,0,1-.113.113H15.846a.113.113,0,0,1-.113-.113V49.075a2.643,2.643,0,0,1,2.64-2.64h6.184a2.643,2.643,0,0,1,2.64,2.64Z"/>
              </g>
            </g>
          </g>
          <g id="Group_1359233" data-name="Group 1359233">
            <g id="Group_1359232" data-name="Group 1359232">
              <path id="Path_1369327" data-name="Path 1369327" d="M25.159,48.93a.527.527,0,0,0-.527.527v3.716a.527.527,0,1,0,1.055,0V49.457A.527.527,0,0,0,25.159,48.93Z"/>
            </g>
          </g>
          <g id="Group_1359235" data-name="Group 1359235">
            <g id="Group_1359234" data-name="Group 1359234">
              <path id="Path_1369328" data-name="Path 1369328" d="M17.771,48.93a.527.527,0,0,0-.527.527v3.716a.527.527,0,1,0,1.055,0V49.457A.527.527,0,0,0,17.771,48.93Z"/>
            </g>
          </g>
          <g id="Group_1359238" data-name="Group 1359238">
            <g id="Group_1359237" data-name="Group 1359237">
              <g id="Group_1359236" data-name="Group 1359236">
                <path id="Path_1369329" data-name="Path 1369329" d="M27.724,29.564a4.158,4.158,0,1,0,4.158,4.158A4.162,4.162,0,0,0,27.724,29.564Zm0,7.261a3.1,3.1,0,1,1,3.1-3.1A3.107,3.107,0,0,1,27.724,36.825Z"/>
              </g>
            </g>
          </g>
          <g id="Group_1359241" data-name="Group 1359241">
            <g id="Group_1359240" data-name="Group 1359240">
              <g id="Group_1359239" data-name="Group 1359239">
                <path id="Path_1369330" data-name="Path 1369330" d="M15.206,29.564a4.158,4.158,0,1,0,4.158,4.158A4.163,4.163,0,0,0,15.206,29.564Zm0,7.261a3.1,3.1,0,1,1,3.1-3.1A3.107,3.107,0,0,1,15.206,36.825Z"/>
              </g>
            </g>
          </g>
          <g id="Group_1359244" data-name="Group 1359244">
            <g id="Group_1359243" data-name="Group 1359243">
              <g id="Group_1359242" data-name="Group 1359242">
                <path id="Path_1369331" data-name="Path 1369331" d="M33.983,37.369a4.158,4.158,0,1,0,4.158,4.158A4.163,4.163,0,0,0,33.983,37.369Zm0,7.261a3.1,3.1,0,1,1,3.1-3.1A3.107,3.107,0,0,1,33.983,44.63Z"/>
              </g>
            </g>
          </g>
          <g id="Group_1359247" data-name="Group 1359247">
            <g id="Group_1359246" data-name="Group 1359246">
              <g id="Group_1359245" data-name="Group 1359245">
                <path id="Path_1369332" data-name="Path 1369332" d="M37.076,45.381H30.891A3.7,3.7,0,0,0,27.2,49.075v3.757A1.169,1.169,0,0,0,28.365,54H39.6a1.169,1.169,0,0,0,1.168-1.168V49.075a3.7,3.7,0,0,0-3.694-3.694Zm2.64,7.451a.113.113,0,0,1-.113.113H28.365a.113.113,0,0,1-.113-.113V49.075a2.643,2.643,0,0,1,2.64-2.64h6.184a2.643,2.643,0,0,1,2.64,2.64v3.757Z"/>
              </g>
            </g>
          </g>
          <g id="Group_1359249" data-name="Group 1359249">
            <g id="Group_1359248" data-name="Group 1359248">
              <path id="Path_1369333" data-name="Path 1369333" d="M37.678,48.93a.527.527,0,0,0-.527.527v3.716a.527.527,0,1,0,1.055,0V49.457A.527.527,0,0,0,37.678,48.93Z"/>
            </g>
          </g>
          <g id="Group_1359251" data-name="Group 1359251">
            <g id="Group_1359250" data-name="Group 1359250">
              <path id="Path_1369334" data-name="Path 1369334" d="M30.289,48.93a.527.527,0,0,0-.527.527v3.716a.527.527,0,1,0,1.055,0V49.457A.527.527,0,0,0,30.289,48.93Z"/>
            </g>
          </g>
          <g id="Group_1359253" data-name="Group 1359253">
            <g id="Group_1359252" data-name="Group 1359252">
              <path id="Path_1369335" data-name="Path 1369335" d="M32.235,37.864a3.639,3.639,0,0,0-1.418-.288H24.632a3.64,3.64,0,0,0-1.455.3.527.527,0,1,0,.419.968,2.59,2.59,0,0,1,1.036-.217h6.184a2.586,2.586,0,0,1,1.009.206.528.528,0,0,0,.409-.972Z"/>
            </g>
          </g>
          <g id="Group_1359255" data-name="Group 1359255">
            <g id="Group_1359254" data-name="Group 1359254">
              <path id="Path_1369336" data-name="Path 1369336" d="M19.777,37.89a3.642,3.642,0,0,0-1.479-.314H12.113a3.64,3.64,0,0,0-1.458.3.527.527,0,1,0,.42.967,2.59,2.59,0,0,1,1.038-.217H18.3a2.588,2.588,0,0,1,1.053.224.527.527,0,0,0,.426-.965Z"/>
            </g>
          </g>
          <g id="Group_1359257" data-name="Group 1359257">
            <g id="Group_1359256" data-name="Group 1359256">
              <path id="Path_1369337" data-name="Path 1369337" d="M33.254,3.585,28.908,1.412a.527.527,0,0,0-.472.943l4.345,2.186L28.44,6.712a.527.527,0,1,0,.472.943l4.341-2.171a1.062,1.062,0,0,0,0-1.9Z"/>
            </g>
          </g>
          <g id="Group_1359259" data-name="Group 1359259">
            <g id="Group_1359258" data-name="Group 1359258">
              <path id="Path_1369338" data-name="Path 1369338" d="M27.53,0a1.584,1.584,0,0,0-1.582,1.582v8.982a.527.527,0,0,0,1.055,0V1.582a.527.527,0,0,1,1.055,0v8.982a.527.527,0,1,0,1.055,0V1.582A1.584,1.584,0,0,0,27.53,0Z"/>
            </g>
          </g>
          <g id="Group_1359261" data-name="Group 1359261">
            <g id="Group_1359260" data-name="Group 1359260">
              <path id="Path_1369339" data-name="Path 1369339" d="M28.584,14.7a.527.527,0,0,0-.527.527v1.116a.527.527,0,0,1-1.055,0V15.223a.527.527,0,0,0-1.055,0v1.125a1.582,1.582,0,1,0,3.164,0V15.232A.527.527,0,0,0,28.584,14.7Z"/>
            </g>
          </g>
          <g id="Group_1359263" data-name="Group 1359263">
            <g id="Group_1359262" data-name="Group 1359262">
              <path id="Path_1369340" data-name="Path 1369340" d="M44.823,19.5a.528.528,0,0,0-.745-.03,4.234,4.234,0,0,1-5.77-.005.527.527,0,0,0-.717.774,5.289,5.289,0,0,0,7.2.007.528.528,0,0,0,.03-.745Z"/>
            </g>
          </g>
          <g id="Group_1359266" data-name="Group 1359266">
            <g id="Group_1359265" data-name="Group 1359265">
              <g id="Group_1359264" data-name="Group 1359264">
                <path id="Path_1369341" data-name="Path 1369341" d="M43.153,24.813H39.238a1.069,1.069,0,0,0-1.068,1.068v4.226a1.069,1.069,0,0,0,1.068,1.068h3.915a1.069,1.069,0,0,0,1.068-1.068V25.881A1.069,1.069,0,0,0,43.153,24.813Zm0,5.307H39.238l-.013-.013.013-4.239,3.928.013Z"/>
              </g>
            </g>
          </g>
          <g id="Group_1359268" data-name="Group 1359268">
            <g id="Group_1359267" data-name="Group 1359267">
              <path id="Path_1369342" data-name="Path 1369342" d="M43.541,27H38.865a.527.527,0,0,0,0,1.055h4.676a.527.527,0,1,0,0-1.055Z"/>
            </g>
          </g>
        </g>
      </g>
    </g>
  </g>
</svg>
